<svg viewBox="123.64945978391356 199.20000000000002 201.68067226890756 200.4" xmlns:xlink="http://www.w3.org/1999/xlink" version="1.1" xmlns="http://www.w3.org/2000/svg" style="max-height: 500px" width="201.68067226890756" height="200.4"><rect fill="#4a4a4a" y="0" x="0" height="600" width="1000" data-darkreader-inline-fill="" style="--darkreader-inline-fill: #383c3f;"/><g><rect x="207.24290466308594" transform="matrix(0.6031565361931718,0,0,0.6031565361931718,0,61.07042875715791)" fill="#af8848" y="229.4652331017876" ry="13.333333333333334" rx="13.333333333333334" height="333.3333333333333" width="333.3333333333333" data-darkreader-inline-fill="" style="--darkreader-inline-fill: #8c6d3a;"/><path transform="matrix(0.6031565361931718,0,0,0.6031565361931718,0,61.07042875715791)" fill="#2a2a2a" d="M273.92876158142917 471.13191502320365L273.92876158142917 471.13191502320365Q270.44896418177643 471.13191502320365 265.47124074916053 469.5648539425653Q260.4935173165447 467.97474784603526 257.6820253777524 465.99287647934557L257.6820253777524 465.99287647934557Q257.6820253777524 464.6562655576247 258.00465560023673 463.41183469947066Q258.3503308386128 462.16740384131674 258.8342761723394 461.6834585075902L258.8342761723394 461.6834585075902Q267.63747224298413 459.19459679128227 274.8505622170988 455.1156289784442Q282.06365219121346 451.059706181498 286.55743029010284 447.2342335434691L286.55743029010284 447.2342335434691L286.55743029010284 343.0477166969117Q286.55743029010284 337.05601256505923 287.54836597344763 333.8297103402156Q288.5393016567925 330.603408115372 289.5302373401373 329.9351026545115L289.5302373401373 329.9351026545115L272.45388056435786 329.9351026545115Q271.78557510349737 329.2667971936511 271.2094497062039 328.27586151030624Q270.6102792930186 327.2849258269614 270.44896418177643 326.2709451277249L270.44896418177643 326.2709451277249Q271.4398998651213 325.28000944438 273.44481624770265 324.127758649793Q275.42668761439234 322.95246283931425 277.4316039969737 322.05370721953636Q279.41347536366334 321.1319065838668 280.4044110470082 321.1319065838668L280.4044110470082 321.1319065838668L316.2394107586642 321.1319065838668Q316.9077162195247 321.80021204472723 317.5760216803851 323.45945318893257Q318.24432714124555 325.11869433313785 318.24432714124555 326.9392505885853L318.24432714124555 326.9392505885853L311.26168732604833 329.1054820824089Q308.28888027601386 330.0964177657537 306.46832402056634 331.5021637351499Q304.62472274922715 332.907909704546 303.88728224069143 335.6502665956631Q303.1498417321558 338.39262348678017 303.1498417321558 343.53166203063824L303.1498417321558 343.53166203063824L303.1498417321558 441.2655744275084Q301.8132308104348 445.5749923992638 298.2412533472151 450.7140309431219Q294.6692758839954 455.87611450287164 290.0372276897556 460.5081626971114Q285.3821344796241 465.16325590724296 280.9805364443017 468.13606295727743Q276.60198342487104 471.13191502320365 273.92876158142917 471.13191502320365ZM390.74394713666015 437.9470921390978L390.74394713666015 437.9470921390978Q389.5916963420732 437.9470921390978 386.2732140536626 437.53228185304647Q382.954731765252 437.11747156699516 378.6453137934966 436.5413461697016Q374.31285080584945 435.96522077240814 370.00343283409404 435.2047352479807Q365.69401486233863 434.46729473944504 362.28335251036106 433.79898927858454Q358.8957351742753 433.13068381772405 357.55912425255434 432.6467384839975L357.55912425255434 432.6467384839975Q357.55912425255434 431.4714426735188 358.0661146021726 430.15787676768963Q358.5500599358992 428.8212658459687 358.8957351742753 428.3142754963504L358.8957351742753 428.3142754963504L364.03477371813335 427.83033016262385Q367.5145711177861 427.32333981300553 369.1738122619914 425.75627873236726Q370.83305340619665 424.16617263583714 371.50135886705715 420.8476903474266Q372.16966432791764 417.529208059016 372.16966432791764 411.72186405429744L372.16966432791764 411.72186405429744L372.16966432791764 339.72923440850116Q372.16966432791764 335.9037617704722 372.8379697887781 333.66839522897345Q373.4832302337468 331.4330286874747 374.1515356946073 330.4190479882381L374.1515356946073 330.4190479882381L346.61274170397775 330.4190479882381L343.13294430432495 356.9669062955228Q342.14200862098016 357.47389664514105 339.4687867775383 358.05002204243453Q336.8186099499882 358.6261474397281 333.8458028999537 358.6261474397281L333.8458028999537 358.6261474397281Q333.1774974390932 356.32164585055403 332.18656175574836 351.8278677516647Q331.17258105651183 347.3571346686671 330.3429604844092 341.54979066394856Q329.51333991230655 335.74244665923004 329.19070968982214 329.77378754326935L329.19070968982214 329.77378754326935Q331.5182562948879 327.4462409382036 335.66635915540115 324.79606411065345Q339.8144620159144 322.1228422672116 343.80124976518545 321.1319065838668L343.80124976518545 321.1319065838668L417.637480682321 321.1319065838668Q421.7855835428342 322.30720239434555 425.93368640334745 324.86519915832866Q430.08178926386074 327.4462409382036 432.0636606305504 329.77378754326935L432.0636606305504 329.77378754326935Q431.3953551696899 339.5448742813672 429.9896092002937 347.011459430291Q428.5838632308976 354.47804457921484 427.24725230917664 358.6261474397281L427.24725230917664 358.6261474397281Q424.4357603703843 358.6261474397281 421.7855835428342 358.05002204243453Q419.11236169939235 357.47389664514105 418.1214260160475 356.9669062955228L418.1214260160475 356.9669062955228L414.64162861639477 331.4330286874747Q411.99145178884464 330.92603833785637 407.3363585787131 330.4190479882381Q402.7043103844734 329.9351026545115 397.05828149099705 329.9351026545115L397.05828149099705 329.9351026545115Q393.07149374172593 329.9351026545115 391.3200725339537 331.4330286874747Q389.5916963420732 332.907909704546 389.2460211036971 335.16632126193656Q388.92339088121275 337.4016878034354 388.92339088121275 339.89054951974333L388.92339088121275 339.89054951974333L388.92339088121275 415.8699669148107Q388.92339088121275 419.85675466408173 388.0015902455431 422.760426666441Q387.10283462576524 425.6640986688003 386.11189894242045 426.839394479279L386.11189894242045 426.839394479279L403.02694060695774 428.6599507347265Q403.3495708294421 428.8212658459687 403.7643811154934 430.0656967041226Q404.1791914015447 431.31012756227665 404.1791914015447 432.6467384839975L404.1791914015447 432.6467384839975Q401.6903296852368 434.6286098506872 397.7265869518575 436.2878509948925Q393.7397992025864 437.9470921390978 390.74394713666015 437.9470921390978ZM476.8631715240933 437.9470921390978L476.8631715240933 437.9470921390978Q475.71092072950626 437.9470921390978 472.4615734887709 437.53228185304647Q469.23527126392725 437.11747156699516 464.9949883398471 436.5413461697016Q460.77775043165866 435.96522077240814 456.5374675075784 435.2047352479807Q452.2971845834982 434.46729473944504 448.9095672474124 433.79898927858454Q445.49890489543486 433.13068381772405 444.0009788624718 432.6467384839975L444.0009788624718 432.6467384839975Q444.0009788624718 431.31012756227665 444.5079692120901 430.15787676768963Q445.01495956170834 428.98258095721087 445.6602200066771 428.3142754963504L445.6602200066771 428.3142754963504L450.1539981055664 427.83033016262385Q453.472480393977 427.32333981300553 455.13172153818226 426.0097739071764Q456.79096268238754 424.67316298545546 457.45926814324804 421.35468069704484Q458.10452858821674 418.0361984086343 458.10452858821674 411.72186405429744L458.10452858821674 411.72186405429744L458.10452858821674 342.70204145853563Q458.10452858821674 335.39677142085395 459.44113950993767 332.8387746568708Q460.77775043165866 330.2577328769959 461.100380654143 329.9351026545115L461.100380654143 329.9351026545115L445.84458013381095 329.9351026545115Q445.49890489543486 329.2667971936511 444.9227794981414 328.5984917327906Q444.3466541008479 327.93018627193015 444.0009788624718 326.2709451277249L444.0009788624718 326.2709451277249Q444.8305994345744 325.28000944438 446.8355158171558 324.127758649793Q448.8173871838454 322.95246283931425 450.89143861410207 322.05370721953636Q452.9654900443587 321.1319065838668 453.9564257277035 321.1319065838668L453.9564257277035 321.1319065838668L487.97086918391204 321.1319065838668Q488.80048975601466 321.9615271559694 489.4687952168751 323.5516332524995Q490.13710067773565 325.11869433313785 490.13710067773565 326.9392505885853L490.13710067773565 326.9392505885853L483.17750587843005 329.1054820824089Q479.8590235900195 330.0964177657537 478.10760238224725 331.75565890995904Q476.356181174475 333.4149000541643 475.71092072950626 336.15725694528135Q475.0426152686458 338.8996138363985 475.0426152686458 343.53166203063824L475.0426152686458 343.53166203063824L475.0426152686458 415.8699669148107Q475.0426152686458 419.85675466408173 474.1208146329762 422.760426666441Q473.2220590131983 425.6640986688003 472.2080783139618 426.839394479279L472.2080783139618 426.839394479279L488.6391746447725 428.6599507347265Q488.9848498831486 428.98258095721087 489.39966016919993 430.22701181536485Q489.8144704552513 431.4714426735188 489.8144704552513 432.6467384839975L489.8144704552513 432.6467384839975Q487.32560873894334 434.6286098506872 483.50013610091446 436.2878509948925Q479.6746634628856 437.9470921390978 476.8631715240933 437.9470921390978Z" data-darkreader-inline-fill="" style="--darkreader-inline-fill: #202224;"/><path transform="matrix(0.6031565361931718,0,0,0.6031565361931718,0,61.07042875715791)" fill="#1d1b1b" d="M638.5970644065048 471.1319065697037L638.5970644065048 471.1319065697037Q635.4512310731715 471.1319065697037 630.9512310731715 469.71523990303706Q626.4512310731715 468.27773990303706 623.9095644065048 466.48607323637043L623.9095644065048 466.48607323637043Q623.9095644065048 465.27773990303706 624.2012310731715 464.15273990303706Q624.5137310731715 463.02773990303706 624.9512310731715 462.59023990303706L624.9512310731715 462.59023990303706Q632.9095644065048 460.34023990303706 639.4303977398381 456.65273990303706Q645.9512310731715 452.98607323637043 650.0137310731715 449.52773990303706L650.0137310731715 449.52773990303706L650.0137310731715 355.34023990303706Q650.0137310731715 349.92357323637043 650.9095644065048 347.0069065697037Q651.8053977398381 344.09023990303706 652.7012310731715 343.48607323637043L652.7012310731715 343.48607323637043L637.2637310731715 343.48607323637043Q636.6595644065048 342.88190656970374 636.1387310731715 341.9860732363704Q635.5970644065048 341.09023990303706 635.4512310731715 340.1735732363704L635.4512310731715 340.1735732363704Q636.3470644065048 339.27773990303706 638.1595644065048 338.2360732363704Q639.9512310731715 337.17357323637043 641.7637310731715 336.36107323637043Q643.5553977398381 335.52773990303706 644.4512310731715 335.52773990303706L644.4512310731715 335.52773990303706L676.8470644065048 335.52773990303706Q677.4512310731715 336.13190656970374 678.0553977398381 337.63190656970374Q678.6595644065048 339.1319065697037 678.6595644065048 340.77773990303706L678.6595644065048 340.77773990303706L672.3470644065048 342.73607323637043Q669.6595644065048 343.63190656970374 668.0137310731715 344.90273990303706Q666.3470644065048 346.17357323637043 665.6803977398381 348.65273990303706Q665.0137310731715 351.1319065697037 665.0137310731715 355.77773990303706L665.0137310731715 355.77773990303706L665.0137310731715 444.13190656970374Q663.8053977398381 448.02773990303706 660.5762310731715 452.67357323637043Q657.3470644065048 457.34023990303706 653.1595644065048 461.52773990303706Q648.9512310731715 465.73607323637043 644.9720644065048 468.42357323637043Q641.0137310731715 471.1319065697037 638.5970644065048 471.1319065697037ZM722.5970644065048 441.7360732363704L722.5970644065048 441.7360732363704Q719.0137310731715 441.7360732363704 715.0970644065048 440.09023990303706Q711.2012310731715 438.4235732363704 707.7637310731715 435.88190656970374Q704.3053977398381 433.34023990303706 702.1387310731715 431.00690656970374Q699.9512310731715 428.6735732363704 699.9512310731715 427.34023990303706L699.9512310731715 427.34023990303706L699.9512310731715 381.13190656970374Q699.9512310731715 379.9235732363704 699.5137310731715 378.96523990303706Q699.0553977398381 377.9860732363704 697.5553977398381 377.52773990303706L697.5553977398381 377.52773990303706L688.8470644065048 374.38190656970374Q689.1595644065048 372.59023990303706 689.5970644065048 371.52773990303706Q690.0553977398381 370.48607323637043 690.5137310731715 370.02773990303706L690.5137310731715 370.02773990303706Q692.9095644065048 368.6735732363704 697.0345644065048 367.40273990303706Q701.1595644065048 366.13190656970374 703.5553977398381 366.13190656970374L703.5553977398381 366.13190656970374Q707.7637310731715 366.13190656970374 710.6803977398381 369.21523990303706Q713.5970644065048 372.27773990303706 713.5970644065048 376.63190656970374L713.5970644065048 376.63190656970374L713.5970644065048 423.13190656970374Q715.2637310731715 424.63190656970374 717.5762310731715 426.4235732363704Q719.9095644065048 428.2360732363704 722.3887310731715 429.65273990303706Q724.8470644065048 431.09023990303706 726.6595644065048 431.09023990303706L726.6595644065048 431.09023990303706Q728.5970644065048 431.09023990303706 731.9095644065048 430.1735732363704Q735.2012310731715 429.27773990303706 738.8053977398381 427.8610732363704Q742.4095644065048 426.4235732363704 745.2637310731715 425.2360732363704L745.2637310731715 425.2360732363704L745.2637310731715 381.13190656970374Q745.2637310731715 379.9235732363704 744.7220644065048 378.88190656970374Q744.2012310731715 377.84023990303706 742.8470644065048 377.52773990303706L742.8470644065048 377.52773990303706L732.6595644065048 374.09023990303706Q732.8053977398381 372.42357323637043 733.2637310731715 371.38190656970374Q733.7012310731715 370.34023990303706 734.0137310731715 370.02773990303706L734.0137310731715 370.02773990303706Q735.6595644065048 369.1319065697037 738.5137310731715 368.2360732363704Q741.3470644065048 367.34023990303706 744.3470644065048 366.7360732363704Q747.3470644065048 366.13190656970374 748.8470644065048 366.13190656970374L748.8470644065048 366.13190656970374Q753.0553977398381 366.13190656970374 755.9720644065048 369.21523990303706Q758.9095644065048 372.27773990303706 758.9095644065048 376.63190656970374L758.9095644065048 376.63190656970374L758.9095644065048 431.2360732363704L769.8470644065048 432.4235732363704Q770.1595644065048 432.88190656970374 770.5970644065048 433.8610732363704Q771.0553977398381 434.84023990303706 771.0553977398381 436.02773990303706L771.0553977398381 436.02773990303706Q770.1595644065048 437.38190656970374 767.9720644065048 438.50690656970374Q765.8053977398381 439.63190656970374 763.3262310731715 440.38190656970374Q760.8470644065048 441.13190656970374 759.2012310731715 441.13190656970374L759.2012310731715 441.13190656970374Q755.3053977398381 441.13190656970374 751.6387310731715 438.96523990303706Q747.9512310731715 436.77773990303706 746.5970644065048 433.63190656970374L746.5970644065048 433.63190656970374Q743.4512310731715 435.59023990303706 739.0345644065048 437.38190656970374Q734.5970644065048 439.1735732363704 730.1803977398381 440.46523990303706Q725.7637310731715 441.7360732363704 722.5970644065048 441.7360732363704ZM807.3470644065048 441.13190656970374L807.3470644065048 441.13190656970374Q803.5970644065048 441.13190656970374 799.4095644065048 439.71523990303706Q795.2012310731715 438.27773990303706 791.5345644065048 436.1735732363704Q787.8470644065048 434.09023990303706 785.3887310731715 432.27773990303706Q782.9095644065048 430.4860732363704 782.5970644065048 429.59023990303706L782.5970644065048 429.59023990303706Q782.7637310731715 426.27773990303706 784.0970644065048 422.52773990303706Q785.4512310731715 418.77773990303706 786.9512310731715 416.38190656970374L786.9512310731715 416.38190656970374Q788.9095644065048 416.38190656970374 790.3262310731715 416.84023990303706Q791.7637310731715 417.27773990303706 792.3470644065048 417.59023990303706L792.3470644065048 417.59023990303706Q793.2637310731715 419.84023990303706 794.9095644065048 423.3610732363704Q796.5553977398381 426.8819065697037 798.5137310731715 429.13190656970374L798.5137310731715 429.13190656970374Q800.3053977398381 429.59023990303706 802.5553977398381 429.7985732363704Q804.8053977398381 430.02773990303706 807.2012310731715 430.02773990303706L807.2012310731715 430.02773990303706Q811.4095644065048 430.02773990303706 815.9720644065048 429.65273990303706Q820.5553977398381 429.27773990303706 823.8470644065048 428.09023990303706L823.8470644065048 428.09023990303706Q824.4512310731715 426.8819065697037 824.8262310731715 424.34023990303706Q825.2012310731715 421.77773990303706 825.2012310731715 419.38190656970374L825.2012310731715 419.38190656970374Q825.2012310731715 418.17357323637043 825.1387310731715 416.75690656970374Q825.0553977398381 415.34023990303706 824.7637310731715 414.13190656970374L824.7637310731715 414.13190656970374Q824.3053977398381 413.52773990303706 820.4095644065048 412.34023990303706Q816.5137310731715 411.13190656970374 810.8887310731715 409.63190656970374Q805.2637310731715 408.1319065697037 799.4720644065048 406.5485732363704Q793.7012310731715 404.9860732363704 789.5137310731715 403.40273990303706Q785.3053977398381 401.84023990303706 784.4095644065048 400.77773990303706L784.4095644065048 400.77773990303706Q784.0970644065048 398.9860732363704 783.9512310731715 396.7985732363704Q783.8053977398381 394.63190656970374 783.8053977398381 392.09023990303706L783.8053977398381 392.09023990303706Q783.8053977398381 387.59023990303706 784.6387310731715 383.2985732363704Q785.4512310731715 379.02773990303706 786.5137310731715 376.1735732363704L786.5137310731715 376.1735732363704Q788.3053977398381 374.9860732363704 791.7637310731715 373.34023990303706Q795.2012310731715 371.6735732363704 799.4720644065048 370.02773990303706Q803.7637310731715 368.3819065697037 808.0970644065048 367.25690656970374Q812.4512310731715 366.13190656970374 816.2012310731715 366.13190656970374L816.2012310731715 366.13190656970374Q818.5970644065048 366.13190656970374 822.2012310731715 367.40273990303706Q825.8053977398381 368.6735732363704 829.3262310731715 370.5485732363704Q832.8470644065048 372.42357323637043 835.1803977398381 374.15273990303706Q837.5137310731715 375.88190656970374 837.6595644065048 376.63190656970374L837.6595644065048 376.63190656970374Q837.6595644065048 377.9860732363704 836.7637310731715 380.9860732363704Q835.8470644065048 383.9860732363704 834.4303977398381 386.90273990303706Q833.0137310731715 389.84023990303706 831.8053977398381 391.02773990303706L831.8053977398381 391.02773990303706Q830.0137310731715 391.02773990303706 828.5137310731715 390.50690656970374Q827.0137310731715 389.9860732363704 826.2637310731715 389.52773990303706L826.2637310731715 389.52773990303706Q824.1595644065048 384.59023990303706 823.0345644065048 381.0485732363704Q821.9095644065048 377.52773990303706 820.5553977398381 377.52773990303706L820.5553977398381 377.52773990303706Q817.0970644065048 377.52773990303706 812.5345644065048 377.84023990303706Q807.9512310731715 378.13190656970374 804.2012310731715 378.59023990303706Q800.4512310731715 379.02773990303706 798.6595644065048 379.4860732363704L798.6595644065048 379.4860732363704Q798.2012310731715 380.9860732363704 798.0553977398381 383.15273990303706Q797.9095644065048 385.34023990303706 797.9095644065048 387.27773990303706L797.9095644065048 387.27773990303706Q797.9095644065048 389.23607323637043 798.0553977398381 391.02773990303706Q798.2012310731715 392.84023990303706 798.3470644065048 394.02773990303706L798.3470644065048 394.02773990303706Q798.9512310731715 394.4860732363704 802.7012310731715 395.46523990303706Q806.4512310731715 396.4235732363704 811.7845644065048 397.71523990303706Q817.0970644065048 398.9860732363704 822.7220644065048 400.4860732363704Q828.3470644065048 401.9860732363704 832.7012310731715 403.71523990303706Q837.0553977398381 405.4235732363704 838.7012310731715 407.23607323637043L838.7012310731715 407.23607323637043Q839.1595644065048 408.7360732363704 839.3887310731715 410.75690656970374Q839.5970644065048 412.77773990303706 839.5970644065048 414.88190656970374L839.5970644065048 414.88190656970374Q839.5970644065048 419.84023990303706 838.6387310731715 424.9235732363704Q837.6595644065048 430.02773990303706 836.7637310731715 431.6735732363704L836.7637310731715 431.6735732363704Q834.9512310731715 433.02773990303706 831.7220644065048 434.6735732363704Q828.5137310731715 436.34023990303706 824.4512310731715 437.75690656970374Q820.4095644065048 439.1735732363704 815.9095644065048 440.15273990303706Q811.4095644065048 441.13190656970374 807.3470644065048 441.13190656970374ZM883.2637310731715 441.13190656970374L883.2637310731715 441.13190656970374Q881.4512310731715 441.13190656970374 878.0137310731715 440.09023990303706Q874.5553977398381 439.02773990303706 870.9512310731715 437.46523990303706Q867.3470644065048 435.88190656970374 864.7220644065048 434.2985732363704Q862.0970644065048 432.7360732363704 862.0970644065048 431.84023990303706L862.0970644065048 431.84023990303706L862.0970644065048 374.2360732363704L850.4095644065048 373.4860732363704Q850.4095644065048 370.77773990303706 851.0137310731715 369.1319065697037Q851.5970644065048 367.4860732363704 852.0553977398381 367.02773990303706L852.0553977398381 367.02773990303706L859.7012310731715 366.13190656970374Q861.9512310731715 365.84023990303706 862.6387310731715 364.54857323637043Q863.3053977398381 363.27773990303706 863.3053977398381 360.4235732363704L863.3053977398381 360.4235732363704L863.3053977398381 344.23607323637043Q865.0970644065048 342.88190656970374 867.7220644065048 341.52773990303706Q870.3470644065048 340.1735732363704 872.5970644065048 340.02773990303706L872.5970644065048 340.02773990303706L875.4512310731715 341.9860732363704L875.4512310731715 365.9860732363704L892.2637310731715 366.13190656970374L893.5970644065048 368.09023990303706Q893.4512310731716 370.34023990303706 892.7845644065048 372.21523990303706Q892.0970644065048 374.09023990303706 891.5137310731715 374.9860732363704L891.5137310731715 374.9860732363704L875.7637310731715 374.38190656970374L875.7637310731715 429.13190656970374L893.3053977398381 432.27773990303706Q893.5970644065048 432.7360732363704 893.9720644065048 433.63190656970374Q894.3470644065048 434.52773990303706 894.3470644065048 436.02773990303706L894.3470644065048 436.02773990303706Q893.3053977398381 437.38190656970374 891.2012310731714 438.50690656970374Q889.0970644065048 439.63190656970374 886.9303977398381 440.38190656970374Q884.7637310731715 441.13190656970374 883.2637310731715 441.13190656970374ZM989.4512310731715 441.13190656970374L989.4512310731715 441.13190656970374Q988.4095644065048 441.13190656970374 985.4095644065048 440.75690656970374Q982.4095644065048 440.38190656970374 978.5137310731715 439.8610732363704Q974.5970644065048 439.34023990303706 970.7012310731715 438.65273990303706Q966.8053977398381 437.9860732363704 963.7220644065048 437.38190656970374Q960.6595644065048 436.77773990303706 959.4512310731715 436.34023990303706L959.4512310731715 436.34023990303706Q959.4512310731715 435.27773990303706 959.9095644065048 434.09023990303706Q960.3470644065048 432.88190656970374 960.6595644065048 432.4235732363704L960.6595644065048 432.4235732363704L965.3053977398381 431.9860732363704Q968.4512310731715 431.52773990303706 969.9512310731715 430.1110732363704Q971.4512310731714 428.6735732363704 972.0553977398381 425.6735732363704Q972.6595644065048 422.6735732363704 972.6595644065048 417.4235732363704L972.6595644065048 417.4235732363704L972.6595644065048 352.34023990303706Q972.6595644065048 348.8819065697037 973.2637310731715 346.86107323637043Q973.8470644065048 344.84023990303706 974.4512310731714 343.92357323637043L974.4512310731714 343.92357323637043L949.5553977398381 343.92357323637043L946.4095644065048 367.9235732363704Q945.5137310731715 368.3819065697037 943.0970644065048 368.90273990303706Q940.7012310731715 369.4235732363704 938.0137310731715 369.4235732363704L938.0137310731715 369.4235732363704Q937.4095644065047 367.34023990303706 936.5137310731715 363.27773990303706Q935.5970644065048 359.2360732363704 934.8470644065048 353.98607323637043Q934.0970644065048 348.7360732363704 933.8053977398381 343.34023990303706L933.8053977398381 343.34023990303706Q935.9095644065048 341.2360732363704 939.6595644065048 338.84023990303706Q943.4095644065048 336.42357323637043 947.0137310731715 335.52773990303706L947.0137310731715 335.52773990303706L1013.7637310731715 335.52773990303706Q1017.5137310731715 336.59023990303706 1021.2637310731714 338.90273990303706Q1025.0137310731716 341.2360732363704 1026.805397739838 343.34023990303706L1026.805397739838 343.34023990303706Q1026.2012310731714 352.1735732363704 1024.930397739838 358.9235732363704Q1023.6595644065048 365.6735732363704 1022.4512310731715 369.4235732363704L1022.4512310731715 369.4235732363704Q1019.9095644065048 369.4235732363704 1017.5137310731715 368.90273990303706Q1015.0970644065048 368.3819065697037 1014.2012310731715 367.9235732363704L1014.2012310731715 367.9235732363704L1011.0553977398381 344.84023990303706Q1008.6595644065048 344.38190656970374 1004.4512310731715 343.92357323637043Q1000.2637310731715 343.48607323637043 995.1595644065048 343.48607323637043L995.1595644065048 343.48607323637043Q991.5553977398381 343.48607323637043 989.9720644065048 344.84023990303706Q988.4095644065048 346.17357323637043 988.0970644065048 348.21523990303706Q987.8053977398381 350.2360732363704 987.8053977398381 352.4860732363704L987.8053977398381 352.4860732363704L987.8053977398381 421.1735732363704Q987.8053977398381 424.77773990303706 986.9720644065048 427.40273990303706Q986.1595644065048 430.02773990303706 985.2637310731715 431.09023990303706L985.2637310731715 431.09023990303706L1000.5553977398381 432.7360732363704Q1000.8470644065048 432.88190656970374 1001.2220644065048 434.00690656970374Q1001.5970644065048 435.13190656970374 1001.5970644065048 436.34023990303706L1001.5970644065048 436.34023990303706Q999.3470644065048 438.13190656970374 995.7637310731715 439.63190656970374Q992.1595644065048 441.13190656970374 989.4512310731715 441.13190656970374ZM1073.1595644065048 441.13190656970374L1073.1595644065048 441.13190656970374Q1069.555397739838 441.13190656970374 1064.7637310731716 439.63190656970374Q1059.9512310731716 438.13190656970374 1055.305397739838 435.88190656970374Q1050.6595644065048 433.63190656970374 1047.5762310731716 431.38190656970374Q1044.5137310731716 429.13190656970374 1044.5137310731716 427.77773990303706L1044.5137310731716 427.77773990303706L1044.5137310731716 336.13190656970374Q1044.5137310731716 334.92357323637043 1044.1387310731716 333.96523990303706Q1043.7637310731716 332.98607323637043 1042.2637310731716 332.52773990303706L1042.2637310731716 332.52773990303706L1031.305397739838 329.09023990303706Q1031.5970644065048 327.59023990303706 1032.055397739838 326.52773990303706Q1032.5137310731716 325.48607323637043 1032.6595644065048 325.02773990303706L1032.6595644065048 325.02773990303706Q1034.305397739838 324.13190656970374 1037.305397739838 323.2360732363704Q1040.305397739838 322.34023990303706 1043.4512310731716 321.7360732363704Q1046.5970644065048 321.1319065697037 1048.0970644065048 321.1319065697037L1048.0970644065048 321.1319065697037Q1052.4512310731716 321.1319065697037 1055.305397739838 324.21523990303706Q1058.1595644065048 327.27773990303706 1058.1595644065048 331.6319065697037L1058.1595644065048 331.6319065697037L1058.1595644065048 375.13190656970374Q1060.8470644065048 373.63190656970374 1063.6387310731714 372.04857323637043Q1066.4095644065048 370.48607323637043 1069.2637310731716 369.1319065697037Q1072.0970644065048 367.77773990303706 1074.8887310731716 366.96523990303706Q1077.6595644065048 366.13190656970374 1080.055397739838 366.13190656970374L1080.055397739838 366.13190656970374Q1082.5970644065048 366.13190656970374 1086.2012310731716 367.25690656970374Q1089.805397739838 368.3819065697037 1093.4720644065048 370.1735732363704Q1097.1595644065048 371.98607323637043 1100.0137310731716 373.8610732363704Q1102.8470644065048 375.7360732363704 1103.9095644065048 377.09023990303706L1103.9095644065048 377.09023990303706Q1105.2637310731716 378.88190656970374 1105.930397739838 382.8610732363704Q1106.5970644065048 386.84023990303706 1106.9095644065048 391.34023990303706Q1107.2012310731714 395.84023990303706 1107.2012310731714 399.59023990303706L1107.2012310731714 399.59023990303706Q1107.2012310731714 407.84023990303706 1106.0137310731716 415.4860732363704Q1104.805397739838 423.13190656970374 1103.4512310731716 427.77773990303706L1103.4512310731716 427.77773990303706Q1101.6595644065048 429.59023990303706 1098.3470644065048 431.75690656970374Q1095.055397739838 433.9235732363704 1090.8470644065048 436.1110732363704Q1086.6595644065048 438.27773990303706 1082.1595644065048 439.71523990303706Q1077.6595644065048 441.13190656970374 1073.1595644065048 441.13190656970374ZM1075.0970644065048 430.34023990303706L1075.0970644065048 430.34023990303706Q1077.2012310731716 430.34023990303706 1080.6595644065048 429.50690656970374Q1084.0970644065048 428.6735732363704 1087.180397739838 427.6319065697037Q1090.2637310731714 426.59023990303706 1091.305397739838 425.98607323637043L1091.305397739838 425.98607323637043Q1092.5137310731716 423.13190656970374 1093.0345644065048 418.1110732363704Q1093.555397739838 413.09023990303706 1093.555397739838 407.98607323637043L1093.555397739838 407.98607323637043Q1093.555397739838 402.7360732363704 1093.180397739838 397.86107323637043Q1092.805397739838 392.9860732363704 1092.3470644065048 389.46523990303706Q1091.9095644065048 385.9235732363704 1091.305397739838 384.7360732363704L1091.305397739838 384.7360732363704Q1090.7012310731716 383.84023990303706 1087.8470644065048 382.1110732363704Q1085.0137310731716 380.38190656970374 1081.6387310731716 378.96523990303706Q1078.2637310731716 377.52773990303706 1075.7012310731716 377.52773990303706L1075.7012310731716 377.52773990303706Q1074.3470644065048 377.52773990303706 1071.1387310731716 378.59023990303706Q1067.9095644065048 379.63190656970374 1064.3887310731716 381.0485732363704Q1060.8470644065048 382.4860732363704 1058.1595644065048 383.6735732363704L1058.1595644065048 383.6735732363704L1058.1595644065048 423.7360732363704Q1060.555397739838 425.09023990303706 1063.7012310731714 426.65273990303706Q1066.8470644065048 428.2360732363704 1069.930397739838 429.27773990303706Q1073.0137310731714 430.34023990303706 1075.0970644065048 430.34023990303706ZM1154.0137310731716 441.13190656970374L1154.0137310731716 441.13190656970374Q1150.0970644065046 441.13190656970374 1145.9095644065046 439.63190656970374Q1141.7012310731714 438.13190656970374 1137.9512310731716 436.1110732363704Q1134.2012310731716 434.09023990303706 1131.5137310731716 431.9860732363704Q1128.805397739838 429.88190656970374 1127.7637310731714 428.6735732363704L1127.7637310731714 428.6735732363704Q1125.805397739838 426.27773990303706 1124.5970644065048 420.50690656970374Q1123.4095644065048 414.7360732363704 1123.4095644065048 408.1319065697037L1123.4095644065048 408.1319065697037Q1123.4095644065048 401.9860732363704 1123.930397739838 396.50690656970374Q1124.4512310731714 391.02773990303706 1125.3470644065048 386.38190656970374Q1126.2637310731714 381.7360732363704 1127.305397739838 378.59023990303706L1127.305397739838 378.59023990303706Q1129.4095644065048 377.2360732363704 1133.2220644065048 375.13190656970374Q1137.055397739838 373.02773990303706 1141.6387310731714 371.00690656970374Q1146.2012310731716 368.9860732363704 1151.0762310731714 367.5485732363704Q1155.9512310731714 366.13190656970374 1160.305397739838 366.13190656970374L1160.305397739838 366.13190656970374Q1163.0137310731716 366.13190656970374 1166.5970644065046 367.40273990303706Q1170.2012310731716 368.6735732363704 1173.9512310731716 370.48607323637043Q1177.7012310731716 372.27773990303706 1180.555397739838 374.15273990303706Q1183.4095644065048 376.02773990303706 1184.4512310731716 377.52773990303706L1184.4512310731716 377.52773990303706Q1185.6595644065046 379.1735732363704 1186.3262310731716 383.15273990303706Q1187.0137310731714 387.13190656970374 1187.305397739838 391.5485732363704Q1187.5970644065046 395.9860732363704 1187.5970644065046 399.59023990303706L1187.5970644065046 399.59023990303706Q1187.5970644065046 407.98607323637043 1186.4095644065048 415.77773990303706Q1185.2012310731714 423.59023990303706 1183.8470644065046 428.38190656970374L1183.8470644065046 428.38190656970374Q1181.9095644065046 429.88190656970374 1178.7637310731716 432.0485732363704Q1175.5970644065048 434.2360732363704 1171.6387310731714 436.34023990303706Q1167.6595644065048 438.4235732363704 1163.0762310731714 439.77773990303706Q1158.5137310731714 441.13190656970374 1154.0137310731716 441.13190656970374ZM1155.9512310731714 430.34023990303706L1155.9512310731714 430.34023990303706Q1158.055397739838 430.34023990303706 1161.430397739838 429.3610732363704Q1164.805397739838 428.38190656970374 1167.805397739838 427.1735732363704Q1170.805397739838 425.98607323637043 1171.8470644065046 425.38190656970374L1171.8470644065046 425.38190656970374Q1172.9095644065046 422.52773990303706 1173.430397739838 417.59023990303706Q1173.9512310731716 412.63190656970374 1173.9512310731716 408.1319065697037L1173.9512310731716 408.1319065697037Q1173.9512310731716 403.34023990303706 1173.5762310731716 398.2360732363704Q1173.2012310731714 393.13190656970374 1172.7637310731716 389.3819065697037Q1172.305397739838 385.63190656970374 1171.555397739838 384.7360732363704L1171.555397739838 384.7360732363704Q1170.9512310731716 383.84023990303706 1168.180397739838 382.1110732363704Q1165.4095644065046 380.38190656970374 1161.8887310731714 378.88190656970374Q1158.3470644065046 377.38190656970374 1155.6595644065046 377.38190656970374L1155.6595644065046 377.38190656970374Q1153.8470644065046 377.38190656970374 1150.4720644065046 378.13190656970374Q1147.0970644065046 378.88190656970374 1143.8887310731716 379.9235732363704Q1140.6595644065046 380.9860732363704 1139.0137310731716 381.88190656970374L1139.0137310731716 381.88190656970374Q1138.555397739838 383.38190656970374 1138.0345644065046 386.46523990303706Q1137.5137310731716 389.52773990303706 1137.2012310731714 392.9860732363704Q1136.9095644065046 396.4235732363704 1136.9095644065046 399.59023990303706L1136.9095644065046 399.59023990303706Q1136.9095644065046 404.84023990303706 1137.3470644065046 409.63190656970374Q1137.805397739838 414.4235732363704 1138.4095644065046 417.65273990303706Q1139.0137310731716 420.88190656970374 1139.5970644065046 421.77773990303706L1139.5970644065046 421.77773990303706Q1140.2012310731714 422.38190656970374 1142.0762310731716 423.7985732363704Q1143.9512310731716 425.2360732363704 1146.430397739838 426.73607323637043Q1148.9095644065046 428.2360732363704 1151.5345644065046 429.27773990303706Q1154.1595644065046 430.34023990303706 1155.9512310731714 430.34023990303706ZM1241.0137310731714 441.13190656970374L1241.0137310731714 441.13190656970374Q1237.555397739838 441.13190656970374 1233.6595644065048 439.71523990303706Q1229.7637310731716 438.27773990303706 1226.305397739838 436.1735732363704Q1222.8470644065046 434.09023990303706 1220.2220644065046 432.0485732363704Q1217.5970644065046 430.02773990303706 1216.4095644065046 428.84023990303706L1216.4095644065046 428.84023990303706L1208.4512310731716 386.9860732363704Q1207.8470644065046 384.4235732363704 1206.9512310731714 381.3610732363704Q1206.055397739838 378.27773990303706 1202.9095644065046 377.09023990303706L1202.9095644065046 377.09023990303706L1194.9512310731714 374.38190656970374Q1194.9512310731714 372.59023990303706 1195.555397739838 371.52773990303706Q1196.1595644065046 370.48607323637043 1196.305397739838 370.02773990303706L1196.305397739838 370.02773990303706Q1197.9512310731714 369.1319065697037 1200.430397739838 368.2360732363704Q1202.9095644065046 367.34023990303706 1205.305397739838 366.7360732363704Q1207.7012310731716 366.13190656970374 1208.9095644065046 366.13190656970374L1208.9095644065046 366.13190656970374Q1214.1595644065046 366.13190656970374 1217.305397739838 369.8819065697037Q1220.4512310731716 373.63190656970374 1221.5137310731714 379.9235732363704L1221.5137310731714 379.9235732363704L1228.2637310731716 421.63190656970374Q1229.9095644065048 423.27773990303706 1233.1387310731714 425.84023990303706Q1236.3470644065048 428.38190656970374 1240.7012310731714 429.59023990303706L1240.7012310731714 429.59023990303706Q1243.555397739838 426.27773990303706 1246.555397739838 421.4860732363704Q1249.5553977398383 416.6735732363704 1252.3262310731714 410.90273990303706Q1255.0970644065048 405.13190656970374 1257.055397739838 399.13190656970374L1257.055397739838 399.13190656970374L1254.8053977398383 386.9860732363704Q1254.2012310731714 384.27773990303706 1253.2220644065048 381.21523990303706Q1252.2637310731714 378.13190656970374 1249.2637310731714 377.09023990303706L1249.2637310731714 377.09023990303706L1241.305397739838 374.38190656970374Q1241.4512310731714 372.59023990303706 1241.9720644065048 371.52773990303706Q1242.5137310731714 370.48607323637043 1242.8053977398383 370.02773990303706L1242.8053977398383 370.02773990303706Q1244.305397739838 369.1319065697037 1246.7012310731714 368.2360732363704Q1249.0970644065048 367.34023990303706 1251.5137310731714 366.7360732363704Q1253.9095644065048 366.13190656970374 1255.2637310731714 366.13190656970374L1255.2637310731714 366.13190656970374Q1260.2012310731714 366.13190656970374 1263.5137310731714 369.7985732363704Q1266.805397739838 373.4860732363704 1267.8470644065048 379.77773990303706L1267.8470644065048 379.77773990303706L1274.4512310731714 422.09023990303706Q1276.0970644065048 423.4235732363704 1279.4095644065048 425.98607323637043Q1282.7012310731714 428.52773990303706 1286.7637310731714 429.88190656970374L1286.7637310731714 429.88190656970374Q1289.9095644065048 426.27773990303706 1292.9095644065048 420.59023990303706Q1295.9095644065048 414.88190656970374 1298.5345644065048 408.0485732363704Q1301.1595644065048 401.2360732363704 1303.0345644065048 394.1735732363704Q1304.9095644065048 387.13190656970374 1305.5137310731714 380.84023990303706L1305.5137310731714 380.84023990303706Q1304.4512310731714 379.9235732363704 1301.8262310731714 378.59023990303706Q1299.2012310731714 377.2360732363704 1296.2845644065048 376.02773990303706Q1293.3470644065048 374.84023990303706 1290.805397739838 373.77773990303706Q1288.2637310731714 372.73607323637043 1286.9095644065048 372.42357323637043L1286.9095644065048 372.42357323637043Q1287.2012310731714 370.77773990303706 1287.5762310731714 369.8819065697037Q1287.9512310731714 368.9860732363704 1288.4095644065048 368.3819065697037L1288.4095644065048 368.3819065697037Q1290.055397739838 367.77773990303706 1292.680397739838 367.25690656970374Q1295.305397739838 366.7360732363704 1298.2220644065048 366.4235732363704Q1301.1595644065048 366.13190656970374 1303.555397739838 366.13190656970374L1303.555397739838 366.13190656970374Q1305.3470644065048 366.13190656970374 1307.9095644065048 367.63190656970374Q1310.4512310731714 369.1319065697037 1313.0137310731714 371.15273990303706Q1315.555397739838 373.17357323637043 1317.2845644065048 375.13190656970374Q1319.0137310731714 377.09023990303706 1319.0137310731714 377.9860732363704L1319.0137310731714 377.9860732363704Q1319.0137310731714 382.77773990303706 1317.5137310731714 389.29857323637043Q1316.0137310731714 395.84023990303706 1313.3887310731714 402.96523990303706Q1310.7637310731714 410.09023990303706 1307.3887310731714 416.84023990303706Q1304.0137310731714 423.59023990303706 1300.4095644065048 429.0485732363704Q1296.805397739838 434.52773990303706 1293.3470644065048 437.84023990303706Q1289.9095644065048 441.13190656970374 1286.9095644065048 441.13190656970374L1286.9095644065048 441.13190656970374Q1283.4512310731714 441.13190656970374 1279.7845644065048 439.71523990303706Q1276.0970644065048 438.27773990303706 1272.7220644065048 436.25690656970374Q1269.3470644065048 434.2360732363704 1266.805397739838 432.21523990303706Q1264.2637310731714 430.1735732363704 1263.2012310731714 428.9860732363704L1263.2012310731714 428.9860732363704L1260.6595644065048 417.4235732363704Q1257.805397739838 423.4235732363704 1254.2845644065048 428.90273990303706Q1250.7637310731714 434.38190656970374 1247.305397739838 437.75690656970374Q1243.8470644065048 441.13190656970374 1241.0137310731714 441.13190656970374ZM1389.055397739838 441.13190656970374L1389.055397739838 441.13190656970374Q1388.0137310731714 441.13190656970374 1384.555397739838 440.6110732363704Q1381.0970644065048 440.09023990303706 1376.9720644065048 439.34023990303706Q1372.8470644065048 438.59023990303706 1369.180397739838 437.75690656970374Q1365.5137310731714 436.9235732363704 1363.8470644065048 436.34023990303706L1363.8470644065048 436.34023990303706Q1363.8470644065048 435.27773990303706 1364.305397739838 434.2360732363704Q1364.7637310731714 433.1735732363704 1365.2012310731714 432.7360732363704L1365.2012310731714 432.7360732363704L1369.4095644065048 431.9860732363704Q1371.055397739838 431.6735732363704 1372.2637310731714 430.63190656970374Q1373.4512310731714 429.59023990303706 1374.055397739838 427.1735732363704Q1374.6595644065048 424.77773990303706 1374.6595644065048 420.27773990303706L1374.6595644065048 420.27773990303706L1374.6595644065048 381.13190656970374Q1374.6595644065048 379.9235732363704 1374.2012310731714 378.96523990303706Q1373.7637310731714 377.9860732363704 1372.2637310731714 377.52773990303706L1372.2637310731714 377.52773990303706L1363.555397739838 374.38190656970374Q1363.7012310731714 372.88190656970374 1364.2220644065048 371.6735732363704Q1364.7637310731714 370.48607323637043 1365.2012310731714 370.02773990303706L1365.2012310731714 370.02773990303706Q1367.5970644065048 368.6735732363704 1371.7220644065048 367.40273990303706Q1375.8470644065048 366.13190656970374 1378.2637310731714 366.13190656970374L1378.2637310731714 366.13190656970374Q1382.4512310731714 366.13190656970374 1385.3887310731714 369.21523990303706Q1388.305397739838 372.27773990303706 1388.305397739838 376.63190656970374L1388.305397739838 376.63190656970374L1388.305397739838 423.13190656970374Q1388.305397739838 426.13190656970374 1387.7012310731714 428.38190656970374Q1387.0970644065048 430.63190656970374 1386.5137310731714 431.52773990303706L1386.5137310731714 431.52773990303706L1399.0970644065048 432.7360732363704Q1399.4095644065048 433.34023990303706 1399.7845644065048 434.15273990303706Q1400.1595644065048 434.9860732363704 1400.1595644065048 436.1735732363704L1400.1595644065048 436.1735732363704Q1399.4095644065048 437.38190656970374 1397.305397739838 438.50690656970374Q1395.2012310731714 439.63190656970374 1392.9512310731714 440.38190656970374Q1390.7012310731714 441.13190656970374 1389.055397739838 441.13190656970374ZM1378.2637310731714 350.84023990303706L1378.2637310731714 350.84023990303706Q1377.3470644065048 350.84023990303706 1375.7845644065048 349.5485732363704Q1374.2012310731714 348.27773990303706 1372.7012310731714 346.40273990303706Q1371.2012310731714 344.52773990303706 1370.2220644065048 342.73607323637043Q1369.2637310731714 340.9235732363704 1369.2637310731714 339.8819065697037L1369.2637310731714 339.8819065697037Q1369.2637310731714 338.6735732363704 1370.5970644065048 337.25690656970374Q1371.9512310731714 335.84023990303706 1373.9095644065048 334.54857323637043Q1375.8470644065048 333.27773990303706 1377.8887310731714 332.2985732363704Q1379.9095644065048 331.34023990303706 1380.9512310731714 331.34023990303706L1380.9512310731714 331.34023990303706Q1382.1595644065048 331.34023990303706 1383.5762310731714 332.6110732363704Q1385.0137310731714 333.88190656970374 1386.3470644065048 335.84023990303706Q1387.7012310731714 337.77773990303706 1388.5970644065048 339.59023990303706Q1389.5137310731714 341.3819065697037 1389.5137310731714 342.73607323637043L1389.5137310731714 342.73607323637043Q1389.5137310731714 343.63190656970374 1388.2220644065048 345.04857323637043Q1386.9512310731714 346.4860732363704 1385.1595644065048 347.84023990303706Q1383.3470644065048 349.17357323637043 1381.4720644065048 350.0069065697037Q1379.5970644065048 350.84023990303706 1378.2637310731714 350.84023990303706ZM1439.5970644065048 441.13190656970374L1439.5970644065048 441.13190656970374Q1437.805397739838 441.13190656970374 1434.3470644065048 440.09023990303706Q1430.9095644065048 439.02773990303706 1427.305397739838 437.46523990303706Q1423.7012310731714 435.88190656970374 1421.0762310731714 434.2985732363704Q1418.4512310731714 432.7360732363704 1418.4512310731714 431.84023990303706L1418.4512310731714 431.84023990303706L1418.4512310731714 374.2360732363704L1406.7637310731714 373.4860732363704Q1406.7637310731714 370.77773990303706 1407.3470644065048 369.1319065697037Q1407.9512310731714 367.4860732363704 1408.4095644065048 367.02773990303706L1408.4095644065048 367.02773990303706L1416.055397739838 366.13190656970374Q1418.305397739838 365.84023990303706 1418.9720644065048 364.54857323637043Q1419.6595644065048 363.27773990303706 1419.6595644065048 360.4235732363704L1419.6595644065048 360.4235732363704L1419.6595644065048 344.23607323637043Q1421.4512310731714 342.88190656970374 1424.0762310731714 341.52773990303706Q1426.7012310731714 340.1735732363704 1428.9512310731714 340.02773990303706L1428.9512310731714 340.02773990303706L1431.805397739838 341.9860732363704L1431.805397739838 365.9860732363704L1448.5970644065048 366.13190656970374L1449.9512310731714 368.09023990303706Q1449.805397739838 370.34023990303706 1449.1387310731714 372.21523990303706Q1448.4512310731714 374.09023990303706 1447.8470644065048 374.9860732363704L1447.8470644065048 374.9860732363704L1432.0970644065048 374.38190656970374L1432.0970644065048 429.13190656970374L1449.6595644065048 432.27773990303706Q1449.9512310731714 432.7360732363704 1450.3262310731714 433.63190656970374Q1450.7012310731714 434.52773990303706 1450.7012310731714 436.02773990303706L1450.7012310731714 436.02773990303706Q1449.6595644065048 437.38190656970374 1447.555397739838 438.50690656970374Q1445.4512310731714 439.63190656970374 1443.2845644065048 440.38190656970374Q1441.0970644065048 441.13190656970374 1439.5970644065048 441.13190656970374Z" data-darkreader-inline-fill="" style="--darkreader-inline-fill: #151718;"/></g></svg>